<svg aria-hidden="true" class="iconify iconify--solar minimal__iconify__root css-10vzt5" height="1em" id="«r13»" role="img" viewbox="0 0 24 24" width="1em" xmlns="http://www.w3.org/2000/svg" xmlns:xlink="http://www.w3.org/1999/xlink"><path d="M5 6.25a.75.75 0 0 0-.488 1.32l7 6c.28.24.695.24.976 0l7-6A.75.75 0 0 0 19 6.25z" fill="currentColor" opacity="0.4"></path><path clip-rule="evenodd" d="M4.43 10.512a.75.75 0 0 1 1.058-.081L12 16.012l6.512-5.581a.75.75 0 1 1 .976 1.139l-7 6a.75.75 0 0 1-.976 0l-7-6a.75.75 0 0 1-.081-1.058" fill="currentColor" fill-rule="evenodd"></path></svg>