<svg class="MuiSvgIcon-root MuiSvgIcon-fontSizeMedium css-952deb" focusable="false" aria-hidden="true" viewBox="0 0 1024 1024" version="1.1" xmlns="http://www.w3.org/2000/svg" width="256" height="256" fill="inherit"><path d="M514.56 170.496a40.192 40.192 0 0 0 40.1408-40.1408V49.9712a40.192 40.192 0 1 0-80.384 0v80.384c0.0512 22.1696 18.0224 40.1408 40.2432 40.1408zM216.2688 270.5408a40.192 40.192 0 1 0 56.832-56.832l-56.832-56.832a40.192 40.192 0 1 0-56.832 56.832l56.832 56.832z m539.7504 0a40.192 40.192 0 0 0 56.832 0l56.832-56.832a40.192 40.192 0 1 0-56.832-56.832l-56.832 56.832a40.192 40.192 0 0 0 0 56.832zM514.56 773.12a261.12 261.12 0 1 0 0-522.24 261.12 261.12 0 0 0 0 522.24z m0-80.384a180.736 180.736 0 1 1 0-361.472 180.736 180.736 0 0 1 0 361.472z m461.9776-140.5952a40.192 40.192 0 0 0 0-80.384h-80.3328a40.192 40.192 0 1 0 0 80.384h80.384z m-843.6736 0a40.192 40.192 0 0 0 0-80.384H52.5312a40.192 40.192 0 1 0 0 80.384h80.384z m683.008 317.952a40.192 40.192 0 1 0 56.832-56.832l-56.832-56.832a40.192 40.192 0 1 0-56.832 56.832l56.832 56.832z m-659.456 0a40.192 40.192 0 0 0 56.832 0l56.832-56.832a40.192 40.192 0 1 0-56.832-56.832l-56.832 56.832a40.192 40.192 0 0 0 0 56.832z m358.144 144.0768a40.192 40.192 0 0 0 40.1408-40.192v-80.384a40.192 40.192 0 1 0-80.384 0v80.384c0.0512 22.1696 18.0224 40.192 40.2432 40.192z" fill="inherit"></path></svg>